<mxfile host="app.diagrams.net" modified="2023-12-18T02:42:55.938Z" agent="Mozilla/5.0 (Macintosh; Intel Mac OS X 10_15_7) AppleWebKit/537.36 (KHTML, like Gecko) Chrome/119.0.0.0 Safari/537.36 OPR/105.0.0.0" etag="x6cyzmtAO2d9YPwKS6Ky" version="22.1.11" type="github">
  <diagram name="Page-1" id="vSUKiOQem5P4ab08vUiI">
    <mxGraphModel dx="1701" dy="660" grid="1" gridSize="10" guides="1" tooltips="1" connect="1" arrows="0" fold="1" page="1" pageScale="1" pageWidth="827" pageHeight="1169" math="0" shadow="0">
      <root>
        <mxCell id="0" />
        <mxCell id="1" parent="0" />
        <mxCell id="lV4_ehx4HyBwoeXUqE6B-64" value="" style="shape=table;startSize=0;container=1;collapsible=0;childLayout=tableLayout;flipH=0;flipV=0;direction=east;rotatable=1;" parent="1" vertex="1">
          <mxGeometry x="360" y="340" width="120" height="600" as="geometry" />
        </mxCell>
        <mxCell id="lV4_ehx4HyBwoeXUqE6B-65" value="" style="shape=tableRow;horizontal=0;startSize=0;swimlaneHead=0;swimlaneBody=0;strokeColor=inherit;top=0;left=0;bottom=0;right=0;collapsible=0;dropTarget=0;fillColor=none;points=[[0,0.5],[1,0.5]];portConstraint=eastwest;" parent="lV4_ehx4HyBwoeXUqE6B-64" vertex="1">
          <mxGeometry width="120" height="40" as="geometry" />
        </mxCell>
        <mxCell id="lV4_ehx4HyBwoeXUqE6B-66" value="D13" style="shape=partialRectangle;html=1;whiteSpace=wrap;connectable=0;strokeColor=inherit;overflow=hidden;fillColor=none;top=0;left=0;bottom=0;right=0;pointerEvents=1;" parent="lV4_ehx4HyBwoeXUqE6B-65" vertex="1">
          <mxGeometry width="60" height="40" as="geometry">
            <mxRectangle width="60" height="40" as="alternateBounds" />
          </mxGeometry>
        </mxCell>
        <mxCell id="lV4_ehx4HyBwoeXUqE6B-67" value="D12" style="shape=partialRectangle;html=1;whiteSpace=wrap;connectable=0;strokeColor=inherit;overflow=hidden;fillColor=none;top=0;left=0;bottom=0;right=0;pointerEvents=1;" parent="lV4_ehx4HyBwoeXUqE6B-65" vertex="1">
          <mxGeometry x="60" width="60" height="40" as="geometry">
            <mxRectangle width="60" height="40" as="alternateBounds" />
          </mxGeometry>
        </mxCell>
        <mxCell id="lV4_ehx4HyBwoeXUqE6B-68" value="" style="shape=tableRow;horizontal=0;startSize=0;swimlaneHead=0;swimlaneBody=0;strokeColor=inherit;top=0;left=0;bottom=0;right=0;collapsible=0;dropTarget=0;fillColor=none;points=[[0,0.5],[1,0.5]];portConstraint=eastwest;" parent="lV4_ehx4HyBwoeXUqE6B-64" vertex="1">
          <mxGeometry y="40" width="120" height="40" as="geometry" />
        </mxCell>
        <mxCell id="lV4_ehx4HyBwoeXUqE6B-69" value="3V3" style="shape=partialRectangle;html=1;whiteSpace=wrap;connectable=0;strokeColor=inherit;overflow=hidden;fillColor=none;top=0;left=0;bottom=0;right=0;pointerEvents=1;" parent="lV4_ehx4HyBwoeXUqE6B-68" vertex="1">
          <mxGeometry width="60" height="40" as="geometry">
            <mxRectangle width="60" height="40" as="alternateBounds" />
          </mxGeometry>
        </mxCell>
        <mxCell id="lV4_ehx4HyBwoeXUqE6B-70" value="D11" style="shape=partialRectangle;html=1;whiteSpace=wrap;connectable=0;strokeColor=inherit;overflow=hidden;fillColor=none;top=0;left=0;bottom=0;right=0;pointerEvents=1;" parent="lV4_ehx4HyBwoeXUqE6B-68" vertex="1">
          <mxGeometry x="60" width="60" height="40" as="geometry">
            <mxRectangle width="60" height="40" as="alternateBounds" />
          </mxGeometry>
        </mxCell>
        <mxCell id="lV4_ehx4HyBwoeXUqE6B-71" value="" style="shape=tableRow;horizontal=0;startSize=0;swimlaneHead=0;swimlaneBody=0;strokeColor=inherit;top=0;left=0;bottom=0;right=0;collapsible=0;dropTarget=0;fillColor=none;points=[[0,0.5],[1,0.5]];portConstraint=eastwest;" parent="lV4_ehx4HyBwoeXUqE6B-64" vertex="1">
          <mxGeometry y="80" width="120" height="40" as="geometry" />
        </mxCell>
        <mxCell id="lV4_ehx4HyBwoeXUqE6B-72" value="AREF" style="shape=partialRectangle;html=1;whiteSpace=wrap;connectable=0;strokeColor=inherit;overflow=hidden;fillColor=none;top=0;left=0;bottom=0;right=0;pointerEvents=1;" parent="lV4_ehx4HyBwoeXUqE6B-71" vertex="1">
          <mxGeometry width="60" height="40" as="geometry">
            <mxRectangle width="60" height="40" as="alternateBounds" />
          </mxGeometry>
        </mxCell>
        <mxCell id="lV4_ehx4HyBwoeXUqE6B-73" value="D10" style="shape=partialRectangle;html=1;whiteSpace=wrap;connectable=0;strokeColor=inherit;overflow=hidden;fillColor=none;top=0;left=0;bottom=0;right=0;pointerEvents=1;" parent="lV4_ehx4HyBwoeXUqE6B-71" vertex="1">
          <mxGeometry x="60" width="60" height="40" as="geometry">
            <mxRectangle width="60" height="40" as="alternateBounds" />
          </mxGeometry>
        </mxCell>
        <mxCell id="lV4_ehx4HyBwoeXUqE6B-74" value="" style="shape=tableRow;horizontal=0;startSize=0;swimlaneHead=0;swimlaneBody=0;strokeColor=inherit;top=0;left=0;bottom=0;right=0;collapsible=0;dropTarget=0;fillColor=none;points=[[0,0.5],[1,0.5]];portConstraint=eastwest;" parent="lV4_ehx4HyBwoeXUqE6B-64" vertex="1">
          <mxGeometry y="120" width="120" height="40" as="geometry" />
        </mxCell>
        <mxCell id="lV4_ehx4HyBwoeXUqE6B-75" value="A0" style="shape=partialRectangle;html=1;whiteSpace=wrap;connectable=0;strokeColor=inherit;overflow=hidden;fillColor=none;top=0;left=0;bottom=0;right=0;pointerEvents=1;" parent="lV4_ehx4HyBwoeXUqE6B-74" vertex="1">
          <mxGeometry width="60" height="40" as="geometry">
            <mxRectangle width="60" height="40" as="alternateBounds" />
          </mxGeometry>
        </mxCell>
        <mxCell id="lV4_ehx4HyBwoeXUqE6B-76" value="D9" style="shape=partialRectangle;html=1;whiteSpace=wrap;connectable=0;strokeColor=inherit;overflow=hidden;fillColor=none;top=0;left=0;bottom=0;right=0;pointerEvents=1;" parent="lV4_ehx4HyBwoeXUqE6B-74" vertex="1">
          <mxGeometry x="60" width="60" height="40" as="geometry">
            <mxRectangle width="60" height="40" as="alternateBounds" />
          </mxGeometry>
        </mxCell>
        <mxCell id="lV4_ehx4HyBwoeXUqE6B-77" value="" style="shape=tableRow;horizontal=0;startSize=0;swimlaneHead=0;swimlaneBody=0;strokeColor=inherit;top=0;left=0;bottom=0;right=0;collapsible=0;dropTarget=0;fillColor=none;points=[[0,0.5],[1,0.5]];portConstraint=eastwest;" parent="lV4_ehx4HyBwoeXUqE6B-64" vertex="1">
          <mxGeometry y="160" width="120" height="40" as="geometry" />
        </mxCell>
        <mxCell id="lV4_ehx4HyBwoeXUqE6B-78" value="A1" style="shape=partialRectangle;html=1;whiteSpace=wrap;connectable=0;strokeColor=inherit;overflow=hidden;fillColor=none;top=0;left=0;bottom=0;right=0;pointerEvents=1;" parent="lV4_ehx4HyBwoeXUqE6B-77" vertex="1">
          <mxGeometry width="60" height="40" as="geometry">
            <mxRectangle width="60" height="40" as="alternateBounds" />
          </mxGeometry>
        </mxCell>
        <mxCell id="lV4_ehx4HyBwoeXUqE6B-79" value="D8" style="shape=partialRectangle;html=1;whiteSpace=wrap;connectable=0;strokeColor=inherit;overflow=hidden;fillColor=none;top=0;left=0;bottom=0;right=0;pointerEvents=1;" parent="lV4_ehx4HyBwoeXUqE6B-77" vertex="1">
          <mxGeometry x="60" width="60" height="40" as="geometry">
            <mxRectangle width="60" height="40" as="alternateBounds" />
          </mxGeometry>
        </mxCell>
        <mxCell id="lV4_ehx4HyBwoeXUqE6B-80" value="" style="shape=tableRow;horizontal=0;startSize=0;swimlaneHead=0;swimlaneBody=0;strokeColor=inherit;top=0;left=0;bottom=0;right=0;collapsible=0;dropTarget=0;fillColor=none;points=[[0,0.5],[1,0.5]];portConstraint=eastwest;" parent="lV4_ehx4HyBwoeXUqE6B-64" vertex="1">
          <mxGeometry y="200" width="120" height="40" as="geometry" />
        </mxCell>
        <mxCell id="lV4_ehx4HyBwoeXUqE6B-81" value="A2" style="shape=partialRectangle;html=1;whiteSpace=wrap;connectable=0;strokeColor=inherit;overflow=hidden;fillColor=none;top=0;left=0;bottom=0;right=0;pointerEvents=1;" parent="lV4_ehx4HyBwoeXUqE6B-80" vertex="1">
          <mxGeometry width="60" height="40" as="geometry">
            <mxRectangle width="60" height="40" as="alternateBounds" />
          </mxGeometry>
        </mxCell>
        <mxCell id="lV4_ehx4HyBwoeXUqE6B-82" value="D7" style="shape=partialRectangle;html=1;whiteSpace=wrap;connectable=0;strokeColor=inherit;overflow=hidden;fillColor=none;top=0;left=0;bottom=0;right=0;pointerEvents=1;" parent="lV4_ehx4HyBwoeXUqE6B-80" vertex="1">
          <mxGeometry x="60" width="60" height="40" as="geometry">
            <mxRectangle width="60" height="40" as="alternateBounds" />
          </mxGeometry>
        </mxCell>
        <mxCell id="lV4_ehx4HyBwoeXUqE6B-83" value="" style="shape=tableRow;horizontal=0;startSize=0;swimlaneHead=0;swimlaneBody=0;strokeColor=inherit;top=0;left=0;bottom=0;right=0;collapsible=0;dropTarget=0;fillColor=none;points=[[0,0.5],[1,0.5]];portConstraint=eastwest;" parent="lV4_ehx4HyBwoeXUqE6B-64" vertex="1">
          <mxGeometry y="240" width="120" height="40" as="geometry" />
        </mxCell>
        <mxCell id="lV4_ehx4HyBwoeXUqE6B-84" value="A3" style="shape=partialRectangle;html=1;whiteSpace=wrap;connectable=0;strokeColor=inherit;overflow=hidden;fillColor=none;top=0;left=0;bottom=0;right=0;pointerEvents=1;" parent="lV4_ehx4HyBwoeXUqE6B-83" vertex="1">
          <mxGeometry width="60" height="40" as="geometry">
            <mxRectangle width="60" height="40" as="alternateBounds" />
          </mxGeometry>
        </mxCell>
        <mxCell id="lV4_ehx4HyBwoeXUqE6B-85" value="D6" style="shape=partialRectangle;html=1;whiteSpace=wrap;connectable=0;strokeColor=inherit;overflow=hidden;fillColor=none;top=0;left=0;bottom=0;right=0;pointerEvents=1;" parent="lV4_ehx4HyBwoeXUqE6B-83" vertex="1">
          <mxGeometry x="60" width="60" height="40" as="geometry">
            <mxRectangle width="60" height="40" as="alternateBounds" />
          </mxGeometry>
        </mxCell>
        <mxCell id="lV4_ehx4HyBwoeXUqE6B-86" value="" style="shape=tableRow;horizontal=0;startSize=0;swimlaneHead=0;swimlaneBody=0;strokeColor=inherit;top=0;left=0;bottom=0;right=0;collapsible=0;dropTarget=0;fillColor=none;points=[[0,0.5],[1,0.5]];portConstraint=eastwest;" parent="lV4_ehx4HyBwoeXUqE6B-64" vertex="1">
          <mxGeometry y="280" width="120" height="40" as="geometry" />
        </mxCell>
        <mxCell id="lV4_ehx4HyBwoeXUqE6B-87" value="A4" style="shape=partialRectangle;html=1;whiteSpace=wrap;connectable=0;strokeColor=inherit;overflow=hidden;fillColor=none;top=0;left=0;bottom=0;right=0;pointerEvents=1;" parent="lV4_ehx4HyBwoeXUqE6B-86" vertex="1">
          <mxGeometry width="60" height="40" as="geometry">
            <mxRectangle width="60" height="40" as="alternateBounds" />
          </mxGeometry>
        </mxCell>
        <mxCell id="lV4_ehx4HyBwoeXUqE6B-88" value="D5" style="shape=partialRectangle;html=1;whiteSpace=wrap;connectable=0;strokeColor=inherit;overflow=hidden;fillColor=none;top=0;left=0;bottom=0;right=0;pointerEvents=1;" parent="lV4_ehx4HyBwoeXUqE6B-86" vertex="1">
          <mxGeometry x="60" width="60" height="40" as="geometry">
            <mxRectangle width="60" height="40" as="alternateBounds" />
          </mxGeometry>
        </mxCell>
        <mxCell id="lV4_ehx4HyBwoeXUqE6B-89" value="" style="shape=tableRow;horizontal=0;startSize=0;swimlaneHead=0;swimlaneBody=0;strokeColor=inherit;top=0;left=0;bottom=0;right=0;collapsible=0;dropTarget=0;fillColor=none;points=[[0,0.5],[1,0.5]];portConstraint=eastwest;" parent="lV4_ehx4HyBwoeXUqE6B-64" vertex="1">
          <mxGeometry y="320" width="120" height="40" as="geometry" />
        </mxCell>
        <mxCell id="lV4_ehx4HyBwoeXUqE6B-90" value="A5" style="shape=partialRectangle;html=1;whiteSpace=wrap;connectable=0;strokeColor=inherit;overflow=hidden;fillColor=none;top=0;left=0;bottom=0;right=0;pointerEvents=1;" parent="lV4_ehx4HyBwoeXUqE6B-89" vertex="1">
          <mxGeometry width="60" height="40" as="geometry">
            <mxRectangle width="60" height="40" as="alternateBounds" />
          </mxGeometry>
        </mxCell>
        <mxCell id="lV4_ehx4HyBwoeXUqE6B-91" value="D4" style="shape=partialRectangle;html=1;whiteSpace=wrap;connectable=0;strokeColor=inherit;overflow=hidden;fillColor=none;top=0;left=0;bottom=0;right=0;pointerEvents=1;" parent="lV4_ehx4HyBwoeXUqE6B-89" vertex="1">
          <mxGeometry x="60" width="60" height="40" as="geometry">
            <mxRectangle width="60" height="40" as="alternateBounds" />
          </mxGeometry>
        </mxCell>
        <mxCell id="lV4_ehx4HyBwoeXUqE6B-92" value="" style="shape=tableRow;horizontal=0;startSize=0;swimlaneHead=0;swimlaneBody=0;strokeColor=inherit;top=0;left=0;bottom=0;right=0;collapsible=0;dropTarget=0;fillColor=none;points=[[0,0.5],[1,0.5]];portConstraint=eastwest;" parent="lV4_ehx4HyBwoeXUqE6B-64" vertex="1">
          <mxGeometry y="360" width="120" height="40" as="geometry" />
        </mxCell>
        <mxCell id="lV4_ehx4HyBwoeXUqE6B-93" value="A6" style="shape=partialRectangle;html=1;whiteSpace=wrap;connectable=0;strokeColor=inherit;overflow=hidden;fillColor=none;top=0;left=0;bottom=0;right=0;pointerEvents=1;" parent="lV4_ehx4HyBwoeXUqE6B-92" vertex="1">
          <mxGeometry width="60" height="40" as="geometry">
            <mxRectangle width="60" height="40" as="alternateBounds" />
          </mxGeometry>
        </mxCell>
        <mxCell id="lV4_ehx4HyBwoeXUqE6B-94" value="D3" style="shape=partialRectangle;html=1;whiteSpace=wrap;connectable=0;strokeColor=inherit;overflow=hidden;fillColor=none;top=0;left=0;bottom=0;right=0;pointerEvents=1;" parent="lV4_ehx4HyBwoeXUqE6B-92" vertex="1">
          <mxGeometry x="60" width="60" height="40" as="geometry">
            <mxRectangle width="60" height="40" as="alternateBounds" />
          </mxGeometry>
        </mxCell>
        <mxCell id="lV4_ehx4HyBwoeXUqE6B-95" value="" style="shape=tableRow;horizontal=0;startSize=0;swimlaneHead=0;swimlaneBody=0;strokeColor=inherit;top=0;left=0;bottom=0;right=0;collapsible=0;dropTarget=0;fillColor=none;points=[[0,0.5],[1,0.5]];portConstraint=eastwest;" parent="lV4_ehx4HyBwoeXUqE6B-64" vertex="1">
          <mxGeometry y="400" width="120" height="40" as="geometry" />
        </mxCell>
        <mxCell id="lV4_ehx4HyBwoeXUqE6B-96" value="A7" style="shape=partialRectangle;html=1;whiteSpace=wrap;connectable=0;strokeColor=inherit;overflow=hidden;fillColor=none;top=0;left=0;bottom=0;right=0;pointerEvents=1;" parent="lV4_ehx4HyBwoeXUqE6B-95" vertex="1">
          <mxGeometry width="60" height="40" as="geometry">
            <mxRectangle width="60" height="40" as="alternateBounds" />
          </mxGeometry>
        </mxCell>
        <mxCell id="lV4_ehx4HyBwoeXUqE6B-97" value="D2" style="shape=partialRectangle;html=1;whiteSpace=wrap;connectable=0;strokeColor=inherit;overflow=hidden;fillColor=none;top=0;left=0;bottom=0;right=0;pointerEvents=1;" parent="lV4_ehx4HyBwoeXUqE6B-95" vertex="1">
          <mxGeometry x="60" width="60" height="40" as="geometry">
            <mxRectangle width="60" height="40" as="alternateBounds" />
          </mxGeometry>
        </mxCell>
        <mxCell id="lV4_ehx4HyBwoeXUqE6B-98" value="" style="shape=tableRow;horizontal=0;startSize=0;swimlaneHead=0;swimlaneBody=0;strokeColor=inherit;top=0;left=0;bottom=0;right=0;collapsible=0;dropTarget=0;fillColor=none;points=[[0,0.5],[1,0.5]];portConstraint=eastwest;" parent="lV4_ehx4HyBwoeXUqE6B-64" vertex="1">
          <mxGeometry y="440" width="120" height="40" as="geometry" />
        </mxCell>
        <mxCell id="lV4_ehx4HyBwoeXUqE6B-99" value="+5V" style="shape=partialRectangle;html=1;whiteSpace=wrap;connectable=0;strokeColor=inherit;overflow=hidden;fillColor=none;top=0;left=0;bottom=0;right=0;pointerEvents=1;" parent="lV4_ehx4HyBwoeXUqE6B-98" vertex="1">
          <mxGeometry width="60" height="40" as="geometry">
            <mxRectangle width="60" height="40" as="alternateBounds" />
          </mxGeometry>
        </mxCell>
        <mxCell id="lV4_ehx4HyBwoeXUqE6B-100" value="GND" style="shape=partialRectangle;html=1;whiteSpace=wrap;connectable=0;strokeColor=inherit;overflow=hidden;fillColor=none;top=0;left=0;bottom=0;right=0;pointerEvents=1;" parent="lV4_ehx4HyBwoeXUqE6B-98" vertex="1">
          <mxGeometry x="60" width="60" height="40" as="geometry">
            <mxRectangle width="60" height="40" as="alternateBounds" />
          </mxGeometry>
        </mxCell>
        <mxCell id="lV4_ehx4HyBwoeXUqE6B-101" value="" style="shape=tableRow;horizontal=0;startSize=0;swimlaneHead=0;swimlaneBody=0;strokeColor=inherit;top=0;left=0;bottom=0;right=0;collapsible=0;dropTarget=0;fillColor=none;points=[[0,0.5],[1,0.5]];portConstraint=eastwest;" parent="lV4_ehx4HyBwoeXUqE6B-64" vertex="1">
          <mxGeometry y="480" width="120" height="40" as="geometry" />
        </mxCell>
        <mxCell id="lV4_ehx4HyBwoeXUqE6B-102" value="RST" style="shape=partialRectangle;html=1;whiteSpace=wrap;connectable=0;strokeColor=inherit;overflow=hidden;fillColor=none;top=0;left=0;bottom=0;right=0;pointerEvents=1;" parent="lV4_ehx4HyBwoeXUqE6B-101" vertex="1">
          <mxGeometry width="60" height="40" as="geometry">
            <mxRectangle width="60" height="40" as="alternateBounds" />
          </mxGeometry>
        </mxCell>
        <mxCell id="lV4_ehx4HyBwoeXUqE6B-103" value="RST" style="shape=partialRectangle;html=1;whiteSpace=wrap;connectable=0;strokeColor=inherit;overflow=hidden;fillColor=none;top=0;left=0;bottom=0;right=0;pointerEvents=1;" parent="lV4_ehx4HyBwoeXUqE6B-101" vertex="1">
          <mxGeometry x="60" width="60" height="40" as="geometry">
            <mxRectangle width="60" height="40" as="alternateBounds" />
          </mxGeometry>
        </mxCell>
        <mxCell id="lV4_ehx4HyBwoeXUqE6B-104" value="" style="shape=tableRow;horizontal=0;startSize=0;swimlaneHead=0;swimlaneBody=0;strokeColor=inherit;top=0;left=0;bottom=0;right=0;collapsible=0;dropTarget=0;fillColor=none;points=[[0,0.5],[1,0.5]];portConstraint=eastwest;" parent="lV4_ehx4HyBwoeXUqE6B-64" vertex="1">
          <mxGeometry y="520" width="120" height="40" as="geometry" />
        </mxCell>
        <mxCell id="lV4_ehx4HyBwoeXUqE6B-105" value="GND" style="shape=partialRectangle;html=1;whiteSpace=wrap;connectable=0;strokeColor=inherit;overflow=hidden;fillColor=none;top=0;left=0;bottom=0;right=0;pointerEvents=1;" parent="lV4_ehx4HyBwoeXUqE6B-104" vertex="1">
          <mxGeometry width="60" height="40" as="geometry">
            <mxRectangle width="60" height="40" as="alternateBounds" />
          </mxGeometry>
        </mxCell>
        <mxCell id="lV4_ehx4HyBwoeXUqE6B-106" value="RX0" style="shape=partialRectangle;html=1;whiteSpace=wrap;connectable=0;strokeColor=inherit;overflow=hidden;fillColor=none;top=0;left=0;bottom=0;right=0;pointerEvents=1;" parent="lV4_ehx4HyBwoeXUqE6B-104" vertex="1">
          <mxGeometry x="60" width="60" height="40" as="geometry">
            <mxRectangle width="60" height="40" as="alternateBounds" />
          </mxGeometry>
        </mxCell>
        <mxCell id="lV4_ehx4HyBwoeXUqE6B-107" style="shape=tableRow;horizontal=0;startSize=0;swimlaneHead=0;swimlaneBody=0;strokeColor=inherit;top=0;left=0;bottom=0;right=0;collapsible=0;dropTarget=0;fillColor=none;points=[[0,0.5],[1,0.5]];portConstraint=eastwest;" parent="lV4_ehx4HyBwoeXUqE6B-64" vertex="1">
          <mxGeometry y="560" width="120" height="40" as="geometry" />
        </mxCell>
        <mxCell id="lV4_ehx4HyBwoeXUqE6B-108" value="VIN" style="shape=partialRectangle;html=1;whiteSpace=wrap;connectable=0;strokeColor=inherit;overflow=hidden;fillColor=none;top=0;left=0;bottom=0;right=0;pointerEvents=1;" parent="lV4_ehx4HyBwoeXUqE6B-107" vertex="1">
          <mxGeometry width="60" height="40" as="geometry">
            <mxRectangle width="60" height="40" as="alternateBounds" />
          </mxGeometry>
        </mxCell>
        <mxCell id="lV4_ehx4HyBwoeXUqE6B-109" value="TX1" style="shape=partialRectangle;html=1;whiteSpace=wrap;connectable=0;strokeColor=inherit;overflow=hidden;fillColor=none;top=0;left=0;bottom=0;right=0;pointerEvents=1;" parent="lV4_ehx4HyBwoeXUqE6B-107" vertex="1">
          <mxGeometry x="60" width="60" height="40" as="geometry">
            <mxRectangle width="60" height="40" as="alternateBounds" />
          </mxGeometry>
        </mxCell>
        <mxCell id="lV4_ehx4HyBwoeXUqE6B-111" value="" style="shape=table;startSize=0;container=1;collapsible=0;childLayout=tableLayout;" parent="1" vertex="1">
          <mxGeometry x="680" y="180" width="130" height="70" as="geometry" />
        </mxCell>
        <mxCell id="lV4_ehx4HyBwoeXUqE6B-112" value="" style="shape=tableRow;horizontal=0;startSize=0;swimlaneHead=0;swimlaneBody=0;strokeColor=inherit;top=0;left=0;bottom=0;right=0;collapsible=0;dropTarget=0;fillColor=none;points=[[0,0.5],[1,0.5]];portConstraint=eastwest;" parent="lV4_ehx4HyBwoeXUqE6B-111" vertex="1">
          <mxGeometry width="130" height="42" as="geometry" />
        </mxCell>
        <mxCell id="lV4_ehx4HyBwoeXUqE6B-113" value="DS18B20" style="shape=partialRectangle;html=1;whiteSpace=wrap;connectable=0;strokeColor=inherit;overflow=hidden;fillColor=none;top=0;left=0;bottom=0;right=0;pointerEvents=1;rowspan=1;colspan=3;" parent="lV4_ehx4HyBwoeXUqE6B-112" vertex="1">
          <mxGeometry width="130" height="42" as="geometry">
            <mxRectangle width="43" height="42" as="alternateBounds" />
          </mxGeometry>
        </mxCell>
        <mxCell id="lV4_ehx4HyBwoeXUqE6B-114" value="" style="shape=partialRectangle;html=1;whiteSpace=wrap;connectable=0;strokeColor=inherit;overflow=hidden;fillColor=none;top=0;left=0;bottom=0;right=0;pointerEvents=1;" parent="lV4_ehx4HyBwoeXUqE6B-112" vertex="1" visible="0">
          <mxGeometry x="43" width="44" height="42" as="geometry">
            <mxRectangle width="44" height="42" as="alternateBounds" />
          </mxGeometry>
        </mxCell>
        <mxCell id="lV4_ehx4HyBwoeXUqE6B-115" value="" style="shape=partialRectangle;html=1;whiteSpace=wrap;connectable=0;strokeColor=inherit;overflow=hidden;fillColor=none;top=0;left=0;bottom=0;right=0;pointerEvents=1;" parent="lV4_ehx4HyBwoeXUqE6B-112" vertex="1" visible="0">
          <mxGeometry x="87" width="43" height="42" as="geometry">
            <mxRectangle width="43" height="42" as="alternateBounds" />
          </mxGeometry>
        </mxCell>
        <mxCell id="lV4_ehx4HyBwoeXUqE6B-116" value="" style="shape=tableRow;horizontal=0;startSize=0;swimlaneHead=0;swimlaneBody=0;strokeColor=inherit;top=0;left=0;bottom=0;right=0;collapsible=0;dropTarget=0;fillColor=none;points=[[0,0.5],[1,0.5]];portConstraint=eastwest;" parent="lV4_ehx4HyBwoeXUqE6B-111" vertex="1">
          <mxGeometry y="42" width="130" height="28" as="geometry" />
        </mxCell>
        <mxCell id="lV4_ehx4HyBwoeXUqE6B-117" value="GND" style="shape=partialRectangle;html=1;whiteSpace=wrap;connectable=0;strokeColor=inherit;overflow=hidden;fillColor=none;top=0;left=0;bottom=0;right=0;pointerEvents=1;" parent="lV4_ehx4HyBwoeXUqE6B-116" vertex="1">
          <mxGeometry width="43" height="28" as="geometry">
            <mxRectangle width="43" height="28" as="alternateBounds" />
          </mxGeometry>
        </mxCell>
        <mxCell id="lV4_ehx4HyBwoeXUqE6B-118" value="DQ" style="shape=partialRectangle;html=1;whiteSpace=wrap;connectable=0;strokeColor=inherit;overflow=hidden;fillColor=none;top=0;left=0;bottom=0;right=0;pointerEvents=1;" parent="lV4_ehx4HyBwoeXUqE6B-116" vertex="1">
          <mxGeometry x="43" width="44" height="28" as="geometry">
            <mxRectangle width="44" height="28" as="alternateBounds" />
          </mxGeometry>
        </mxCell>
        <mxCell id="lV4_ehx4HyBwoeXUqE6B-119" value="VDD" style="shape=partialRectangle;html=1;whiteSpace=wrap;connectable=0;strokeColor=inherit;overflow=hidden;fillColor=none;top=0;left=0;bottom=0;right=0;pointerEvents=1;" parent="lV4_ehx4HyBwoeXUqE6B-116" vertex="1">
          <mxGeometry x="87" width="43" height="28" as="geometry">
            <mxRectangle width="43" height="28" as="alternateBounds" />
          </mxGeometry>
        </mxCell>
        <mxCell id="lV4_ehx4HyBwoeXUqE6B-120" value="" style="pointerEvents=1;verticalLabelPosition=bottom;shadow=0;dashed=0;align=center;html=1;verticalAlign=top;shape=mxgraph.electrical.signal_sources.signal_ground;" parent="1" vertex="1">
          <mxGeometry x="693" y="304" width="13" height="10" as="geometry" />
        </mxCell>
        <mxCell id="lV4_ehx4HyBwoeXUqE6B-122" style="edgeStyle=orthogonalEdgeStyle;rounded=0;orthogonalLoop=1;jettySize=auto;html=1;exitX=0.5;exitY=0;exitDx=0;exitDy=0;exitPerimeter=0;entryX=0.118;entryY=1.021;entryDx=0;entryDy=0;entryPerimeter=0;endArrow=none;endFill=0;" parent="1" edge="1">
          <mxGeometry relative="1" as="geometry">
            <mxPoint x="699.5000000000001" y="303" as="sourcePoint" />
            <mxPoint x="695.34" y="249.58799999999997" as="targetPoint" />
            <Array as="points">
              <mxPoint x="700" y="276" />
              <mxPoint x="700" y="250" />
            </Array>
          </mxGeometry>
        </mxCell>
        <mxCell id="lV4_ehx4HyBwoeXUqE6B-125" style="edgeStyle=orthogonalEdgeStyle;rounded=0;orthogonalLoop=1;jettySize=auto;html=1;exitX=1;exitY=0.5;exitDx=0;exitDy=0;entryX=0.51;entryY=1.008;entryDx=0;entryDy=0;entryPerimeter=0;endArrow=none;endFill=0;" parent="1" edge="1">
          <mxGeometry relative="1" as="geometry">
            <mxPoint x="480" y="349.78" as="sourcePoint" />
            <mxPoint x="746.3000000000002" y="240.00400000000005" as="targetPoint" />
            <Array as="points">
              <mxPoint x="480" y="360" />
              <mxPoint x="530" y="360" />
              <mxPoint x="530" y="340" />
              <mxPoint x="746" y="340" />
            </Array>
          </mxGeometry>
        </mxCell>
        <mxCell id="lV4_ehx4HyBwoeXUqE6B-126" style="edgeStyle=orthogonalEdgeStyle;rounded=0;orthogonalLoop=1;jettySize=auto;html=1;entryX=0.841;entryY=1.034;entryDx=0;entryDy=0;entryPerimeter=0;startArrow=oval;startFill=1;endArrow=none;endFill=0;" parent="1" edge="1">
          <mxGeometry relative="1" as="geometry">
            <mxPoint x="700" y="290" as="sourcePoint" />
            <mxPoint x="787.3299999999999" y="250.952" as="targetPoint" />
            <Array as="points">
              <mxPoint x="787" y="290" />
            </Array>
          </mxGeometry>
        </mxCell>
        <mxCell id="lV4_ehx4HyBwoeXUqE6B-182" style="edgeStyle=none;rounded=0;orthogonalLoop=1;jettySize=auto;html=1;exitX=1;exitY=0.5;exitDx=0;exitDy=0;exitPerimeter=0;entryX=0.5;entryY=1;entryDx=0;entryDy=0;endArrow=baseDash;endFill=0;" parent="1" source="lV4_ehx4HyBwoeXUqE6B-127" target="lV4_ehx4HyBwoeXUqE6B-132" edge="1">
          <mxGeometry relative="1" as="geometry" />
        </mxCell>
        <mxCell id="lV4_ehx4HyBwoeXUqE6B-127" value="4k7" style="pointerEvents=1;verticalLabelPosition=bottom;shadow=0;dashed=0;align=center;html=1;verticalAlign=top;shape=mxgraph.electrical.resistors.resistor_1;rotation=-90;" parent="1" vertex="1">
          <mxGeometry x="585" y="280" width="100" height="20" as="geometry" />
        </mxCell>
        <mxCell id="lV4_ehx4HyBwoeXUqE6B-132" value="+5V" style="text;html=1;strokeColor=none;fillColor=none;align=center;verticalAlign=middle;whiteSpace=wrap;rounded=0;" parent="1" vertex="1">
          <mxGeometry x="605" y="210" width="60" height="30" as="geometry" />
        </mxCell>
        <mxCell id="lV4_ehx4HyBwoeXUqE6B-134" value="" style="shape=table;startSize=0;container=1;collapsible=0;childLayout=tableLayout;" parent="1" vertex="1">
          <mxGeometry x="728" y="460" width="92" height="440" as="geometry" />
        </mxCell>
        <mxCell id="lV4_ehx4HyBwoeXUqE6B-135" value="" style="shape=tableRow;horizontal=0;startSize=0;swimlaneHead=0;swimlaneBody=0;strokeColor=inherit;top=0;left=0;bottom=0;right=0;collapsible=0;dropTarget=0;fillColor=none;points=[[0,0.5],[1,0.5]];portConstraint=eastwest;" parent="lV4_ehx4HyBwoeXUqE6B-134" vertex="1">
          <mxGeometry width="92" height="31" as="geometry" />
        </mxCell>
        <mxCell id="lV4_ehx4HyBwoeXUqE6B-136" value="DB7" style="shape=partialRectangle;html=1;whiteSpace=wrap;connectable=0;strokeColor=inherit;overflow=hidden;fillColor=none;top=0;left=0;bottom=0;right=0;pointerEvents=1;" parent="lV4_ehx4HyBwoeXUqE6B-135" vertex="1">
          <mxGeometry width="32" height="31" as="geometry">
            <mxRectangle width="32" height="31" as="alternateBounds" />
          </mxGeometry>
        </mxCell>
        <mxCell id="lV4_ehx4HyBwoeXUqE6B-165" value="LCD&lt;br&gt;HD44780" style="shape=partialRectangle;html=1;whiteSpace=wrap;connectable=0;strokeColor=inherit;overflow=hidden;fillColor=none;top=0;left=0;bottom=0;right=0;pointerEvents=1;rowspan=14;colspan=1;" parent="lV4_ehx4HyBwoeXUqE6B-135" vertex="1">
          <mxGeometry x="32" width="60" height="440" as="geometry">
            <mxRectangle width="60" height="31" as="alternateBounds" />
          </mxGeometry>
        </mxCell>
        <mxCell id="lV4_ehx4HyBwoeXUqE6B-137" value="" style="shape=tableRow;horizontal=0;startSize=0;swimlaneHead=0;swimlaneBody=0;strokeColor=inherit;top=0;left=0;bottom=0;right=0;collapsible=0;dropTarget=0;fillColor=none;points=[[0,0.5],[1,0.5]];portConstraint=eastwest;" parent="lV4_ehx4HyBwoeXUqE6B-134" vertex="1">
          <mxGeometry y="31" width="92" height="32" as="geometry" />
        </mxCell>
        <mxCell id="lV4_ehx4HyBwoeXUqE6B-138" value="DB6" style="shape=partialRectangle;html=1;whiteSpace=wrap;connectable=0;strokeColor=inherit;overflow=hidden;fillColor=none;top=0;left=0;bottom=0;right=0;pointerEvents=1;" parent="lV4_ehx4HyBwoeXUqE6B-137" vertex="1">
          <mxGeometry width="32" height="32" as="geometry">
            <mxRectangle width="32" height="32" as="alternateBounds" />
          </mxGeometry>
        </mxCell>
        <mxCell id="lV4_ehx4HyBwoeXUqE6B-166" style="shape=partialRectangle;html=1;whiteSpace=wrap;connectable=0;strokeColor=inherit;overflow=hidden;fillColor=none;top=0;left=0;bottom=0;right=0;pointerEvents=1;" parent="lV4_ehx4HyBwoeXUqE6B-137" vertex="1" visible="0">
          <mxGeometry x="32" width="60" height="32" as="geometry">
            <mxRectangle width="60" height="32" as="alternateBounds" />
          </mxGeometry>
        </mxCell>
        <mxCell id="lV4_ehx4HyBwoeXUqE6B-139" value="" style="shape=tableRow;horizontal=0;startSize=0;swimlaneHead=0;swimlaneBody=0;strokeColor=inherit;top=0;left=0;bottom=0;right=0;collapsible=0;dropTarget=0;fillColor=none;points=[[0,0.5],[1,0.5]];portConstraint=eastwest;" parent="lV4_ehx4HyBwoeXUqE6B-134" vertex="1">
          <mxGeometry y="63" width="92" height="31" as="geometry" />
        </mxCell>
        <mxCell id="lV4_ehx4HyBwoeXUqE6B-140" value="DB5" style="shape=partialRectangle;html=1;whiteSpace=wrap;connectable=0;strokeColor=inherit;overflow=hidden;fillColor=none;top=0;left=0;bottom=0;right=0;pointerEvents=1;" parent="lV4_ehx4HyBwoeXUqE6B-139" vertex="1">
          <mxGeometry width="32" height="31" as="geometry">
            <mxRectangle width="32" height="31" as="alternateBounds" />
          </mxGeometry>
        </mxCell>
        <mxCell id="lV4_ehx4HyBwoeXUqE6B-167" style="shape=partialRectangle;html=1;whiteSpace=wrap;connectable=0;strokeColor=inherit;overflow=hidden;fillColor=none;top=0;left=0;bottom=0;right=0;pointerEvents=1;" parent="lV4_ehx4HyBwoeXUqE6B-139" vertex="1" visible="0">
          <mxGeometry x="32" width="60" height="31" as="geometry">
            <mxRectangle width="60" height="31" as="alternateBounds" />
          </mxGeometry>
        </mxCell>
        <mxCell id="lV4_ehx4HyBwoeXUqE6B-141" value="" style="shape=tableRow;horizontal=0;startSize=0;swimlaneHead=0;swimlaneBody=0;strokeColor=inherit;top=0;left=0;bottom=0;right=0;collapsible=0;dropTarget=0;fillColor=none;points=[[0,0.5],[1,0.5]];portConstraint=eastwest;" parent="lV4_ehx4HyBwoeXUqE6B-134" vertex="1">
          <mxGeometry y="94" width="92" height="32" as="geometry" />
        </mxCell>
        <mxCell id="lV4_ehx4HyBwoeXUqE6B-142" value="DB4" style="shape=partialRectangle;html=1;whiteSpace=wrap;connectable=0;strokeColor=inherit;overflow=hidden;fillColor=none;top=0;left=0;bottom=0;right=0;pointerEvents=1;" parent="lV4_ehx4HyBwoeXUqE6B-141" vertex="1">
          <mxGeometry width="32" height="32" as="geometry">
            <mxRectangle width="32" height="32" as="alternateBounds" />
          </mxGeometry>
        </mxCell>
        <mxCell id="lV4_ehx4HyBwoeXUqE6B-168" style="shape=partialRectangle;html=1;whiteSpace=wrap;connectable=0;strokeColor=inherit;overflow=hidden;fillColor=none;top=0;left=0;bottom=0;right=0;pointerEvents=1;" parent="lV4_ehx4HyBwoeXUqE6B-141" vertex="1" visible="0">
          <mxGeometry x="32" width="60" height="32" as="geometry">
            <mxRectangle width="60" height="32" as="alternateBounds" />
          </mxGeometry>
        </mxCell>
        <mxCell id="lV4_ehx4HyBwoeXUqE6B-143" value="" style="shape=tableRow;horizontal=0;startSize=0;swimlaneHead=0;swimlaneBody=0;strokeColor=inherit;top=0;left=0;bottom=0;right=0;collapsible=0;dropTarget=0;fillColor=none;points=[[0,0.5],[1,0.5]];portConstraint=eastwest;" parent="lV4_ehx4HyBwoeXUqE6B-134" vertex="1">
          <mxGeometry y="126" width="92" height="31" as="geometry" />
        </mxCell>
        <mxCell id="lV4_ehx4HyBwoeXUqE6B-144" value="DB3" style="shape=partialRectangle;html=1;whiteSpace=wrap;connectable=0;strokeColor=inherit;overflow=hidden;fillColor=none;top=0;left=0;bottom=0;right=0;pointerEvents=1;" parent="lV4_ehx4HyBwoeXUqE6B-143" vertex="1">
          <mxGeometry width="32" height="31" as="geometry">
            <mxRectangle width="32" height="31" as="alternateBounds" />
          </mxGeometry>
        </mxCell>
        <mxCell id="lV4_ehx4HyBwoeXUqE6B-169" style="shape=partialRectangle;html=1;whiteSpace=wrap;connectable=0;strokeColor=inherit;overflow=hidden;fillColor=none;top=0;left=0;bottom=0;right=0;pointerEvents=1;" parent="lV4_ehx4HyBwoeXUqE6B-143" vertex="1" visible="0">
          <mxGeometry x="32" width="60" height="31" as="geometry">
            <mxRectangle width="60" height="31" as="alternateBounds" />
          </mxGeometry>
        </mxCell>
        <mxCell id="lV4_ehx4HyBwoeXUqE6B-145" value="" style="shape=tableRow;horizontal=0;startSize=0;swimlaneHead=0;swimlaneBody=0;strokeColor=inherit;top=0;left=0;bottom=0;right=0;collapsible=0;dropTarget=0;fillColor=none;points=[[0,0.5],[1,0.5]];portConstraint=eastwest;" parent="lV4_ehx4HyBwoeXUqE6B-134" vertex="1">
          <mxGeometry y="157" width="92" height="32" as="geometry" />
        </mxCell>
        <mxCell id="lV4_ehx4HyBwoeXUqE6B-146" value="DB2" style="shape=partialRectangle;html=1;whiteSpace=wrap;connectable=0;strokeColor=inherit;overflow=hidden;fillColor=none;top=0;left=0;bottom=0;right=0;pointerEvents=1;" parent="lV4_ehx4HyBwoeXUqE6B-145" vertex="1">
          <mxGeometry width="32" height="32" as="geometry">
            <mxRectangle width="32" height="32" as="alternateBounds" />
          </mxGeometry>
        </mxCell>
        <mxCell id="lV4_ehx4HyBwoeXUqE6B-170" style="shape=partialRectangle;html=1;whiteSpace=wrap;connectable=0;strokeColor=inherit;overflow=hidden;fillColor=none;top=0;left=0;bottom=0;right=0;pointerEvents=1;" parent="lV4_ehx4HyBwoeXUqE6B-145" vertex="1" visible="0">
          <mxGeometry x="32" width="60" height="32" as="geometry">
            <mxRectangle width="60" height="32" as="alternateBounds" />
          </mxGeometry>
        </mxCell>
        <mxCell id="lV4_ehx4HyBwoeXUqE6B-147" value="" style="shape=tableRow;horizontal=0;startSize=0;swimlaneHead=0;swimlaneBody=0;strokeColor=inherit;top=0;left=0;bottom=0;right=0;collapsible=0;dropTarget=0;fillColor=none;points=[[0,0.5],[1,0.5]];portConstraint=eastwest;" parent="lV4_ehx4HyBwoeXUqE6B-134" vertex="1">
          <mxGeometry y="189" width="92" height="31" as="geometry" />
        </mxCell>
        <mxCell id="lV4_ehx4HyBwoeXUqE6B-148" value="DB1" style="shape=partialRectangle;html=1;whiteSpace=wrap;connectable=0;strokeColor=inherit;overflow=hidden;fillColor=none;top=0;left=0;bottom=0;right=0;pointerEvents=1;" parent="lV4_ehx4HyBwoeXUqE6B-147" vertex="1">
          <mxGeometry width="32" height="31" as="geometry">
            <mxRectangle width="32" height="31" as="alternateBounds" />
          </mxGeometry>
        </mxCell>
        <mxCell id="lV4_ehx4HyBwoeXUqE6B-171" style="shape=partialRectangle;html=1;whiteSpace=wrap;connectable=0;strokeColor=inherit;overflow=hidden;fillColor=none;top=0;left=0;bottom=0;right=0;pointerEvents=1;" parent="lV4_ehx4HyBwoeXUqE6B-147" vertex="1" visible="0">
          <mxGeometry x="32" width="60" height="31" as="geometry">
            <mxRectangle width="60" height="31" as="alternateBounds" />
          </mxGeometry>
        </mxCell>
        <mxCell id="lV4_ehx4HyBwoeXUqE6B-149" value="" style="shape=tableRow;horizontal=0;startSize=0;swimlaneHead=0;swimlaneBody=0;strokeColor=inherit;top=0;left=0;bottom=0;right=0;collapsible=0;dropTarget=0;fillColor=none;points=[[0,0.5],[1,0.5]];portConstraint=eastwest;" parent="lV4_ehx4HyBwoeXUqE6B-134" vertex="1">
          <mxGeometry y="220" width="92" height="31" as="geometry" />
        </mxCell>
        <mxCell id="lV4_ehx4HyBwoeXUqE6B-150" value="DB0" style="shape=partialRectangle;html=1;whiteSpace=wrap;connectable=0;strokeColor=inherit;overflow=hidden;fillColor=none;top=0;left=0;bottom=0;right=0;pointerEvents=1;" parent="lV4_ehx4HyBwoeXUqE6B-149" vertex="1">
          <mxGeometry width="32" height="31" as="geometry">
            <mxRectangle width="32" height="31" as="alternateBounds" />
          </mxGeometry>
        </mxCell>
        <mxCell id="lV4_ehx4HyBwoeXUqE6B-172" style="shape=partialRectangle;html=1;whiteSpace=wrap;connectable=0;strokeColor=inherit;overflow=hidden;fillColor=none;top=0;left=0;bottom=0;right=0;pointerEvents=1;" parent="lV4_ehx4HyBwoeXUqE6B-149" vertex="1" visible="0">
          <mxGeometry x="32" width="60" height="31" as="geometry">
            <mxRectangle width="60" height="31" as="alternateBounds" />
          </mxGeometry>
        </mxCell>
        <mxCell id="lV4_ehx4HyBwoeXUqE6B-151" value="" style="shape=tableRow;horizontal=0;startSize=0;swimlaneHead=0;swimlaneBody=0;strokeColor=inherit;top=0;left=0;bottom=0;right=0;collapsible=0;dropTarget=0;fillColor=none;points=[[0,0.5],[1,0.5]];portConstraint=eastwest;" parent="lV4_ehx4HyBwoeXUqE6B-134" vertex="1">
          <mxGeometry y="251" width="92" height="32" as="geometry" />
        </mxCell>
        <mxCell id="lV4_ehx4HyBwoeXUqE6B-152" value="E" style="shape=partialRectangle;html=1;whiteSpace=wrap;connectable=0;strokeColor=inherit;overflow=hidden;fillColor=none;top=0;left=0;bottom=0;right=0;pointerEvents=1;" parent="lV4_ehx4HyBwoeXUqE6B-151" vertex="1">
          <mxGeometry width="32" height="32" as="geometry">
            <mxRectangle width="32" height="32" as="alternateBounds" />
          </mxGeometry>
        </mxCell>
        <mxCell id="lV4_ehx4HyBwoeXUqE6B-173" style="shape=partialRectangle;html=1;whiteSpace=wrap;connectable=0;strokeColor=inherit;overflow=hidden;fillColor=none;top=0;left=0;bottom=0;right=0;pointerEvents=1;" parent="lV4_ehx4HyBwoeXUqE6B-151" vertex="1" visible="0">
          <mxGeometry x="32" width="60" height="32" as="geometry">
            <mxRectangle width="60" height="32" as="alternateBounds" />
          </mxGeometry>
        </mxCell>
        <mxCell id="lV4_ehx4HyBwoeXUqE6B-153" value="" style="shape=tableRow;horizontal=0;startSize=0;swimlaneHead=0;swimlaneBody=0;strokeColor=inherit;top=0;left=0;bottom=0;right=0;collapsible=0;dropTarget=0;fillColor=none;points=[[0,0.5],[1,0.5]];portConstraint=eastwest;" parent="lV4_ehx4HyBwoeXUqE6B-134" vertex="1">
          <mxGeometry y="283" width="92" height="31" as="geometry" />
        </mxCell>
        <mxCell id="lV4_ehx4HyBwoeXUqE6B-154" value="R/W" style="shape=partialRectangle;html=1;whiteSpace=wrap;connectable=0;strokeColor=inherit;overflow=hidden;fillColor=none;top=0;left=0;bottom=0;right=0;pointerEvents=1;" parent="lV4_ehx4HyBwoeXUqE6B-153" vertex="1">
          <mxGeometry width="32" height="31" as="geometry">
            <mxRectangle width="32" height="31" as="alternateBounds" />
          </mxGeometry>
        </mxCell>
        <mxCell id="lV4_ehx4HyBwoeXUqE6B-174" style="shape=partialRectangle;html=1;whiteSpace=wrap;connectable=0;strokeColor=inherit;overflow=hidden;fillColor=none;top=0;left=0;bottom=0;right=0;pointerEvents=1;" parent="lV4_ehx4HyBwoeXUqE6B-153" vertex="1" visible="0">
          <mxGeometry x="32" width="60" height="31" as="geometry">
            <mxRectangle width="60" height="31" as="alternateBounds" />
          </mxGeometry>
        </mxCell>
        <mxCell id="lV4_ehx4HyBwoeXUqE6B-155" value="" style="shape=tableRow;horizontal=0;startSize=0;swimlaneHead=0;swimlaneBody=0;strokeColor=inherit;top=0;left=0;bottom=0;right=0;collapsible=0;dropTarget=0;fillColor=none;points=[[0,0.5],[1,0.5]];portConstraint=eastwest;" parent="lV4_ehx4HyBwoeXUqE6B-134" vertex="1">
          <mxGeometry y="314" width="92" height="32" as="geometry" />
        </mxCell>
        <mxCell id="lV4_ehx4HyBwoeXUqE6B-156" value="RS" style="shape=partialRectangle;html=1;whiteSpace=wrap;connectable=0;strokeColor=inherit;overflow=hidden;fillColor=none;top=0;left=0;bottom=0;right=0;pointerEvents=1;" parent="lV4_ehx4HyBwoeXUqE6B-155" vertex="1">
          <mxGeometry width="32" height="32" as="geometry">
            <mxRectangle width="32" height="32" as="alternateBounds" />
          </mxGeometry>
        </mxCell>
        <mxCell id="lV4_ehx4HyBwoeXUqE6B-175" style="shape=partialRectangle;html=1;whiteSpace=wrap;connectable=0;strokeColor=inherit;overflow=hidden;fillColor=none;top=0;left=0;bottom=0;right=0;pointerEvents=1;" parent="lV4_ehx4HyBwoeXUqE6B-155" vertex="1" visible="0">
          <mxGeometry x="32" width="60" height="32" as="geometry">
            <mxRectangle width="60" height="32" as="alternateBounds" />
          </mxGeometry>
        </mxCell>
        <mxCell id="lV4_ehx4HyBwoeXUqE6B-157" value="" style="shape=tableRow;horizontal=0;startSize=0;swimlaneHead=0;swimlaneBody=0;strokeColor=inherit;top=0;left=0;bottom=0;right=0;collapsible=0;dropTarget=0;fillColor=none;points=[[0,0.5],[1,0.5]];portConstraint=eastwest;" parent="lV4_ehx4HyBwoeXUqE6B-134" vertex="1">
          <mxGeometry y="346" width="92" height="31" as="geometry" />
        </mxCell>
        <mxCell id="lV4_ehx4HyBwoeXUqE6B-158" value="V0" style="shape=partialRectangle;html=1;whiteSpace=wrap;connectable=0;strokeColor=inherit;overflow=hidden;fillColor=none;top=0;left=0;bottom=0;right=0;pointerEvents=1;" parent="lV4_ehx4HyBwoeXUqE6B-157" vertex="1">
          <mxGeometry width="32" height="31" as="geometry">
            <mxRectangle width="32" height="31" as="alternateBounds" />
          </mxGeometry>
        </mxCell>
        <mxCell id="lV4_ehx4HyBwoeXUqE6B-176" style="shape=partialRectangle;html=1;whiteSpace=wrap;connectable=0;strokeColor=inherit;overflow=hidden;fillColor=none;top=0;left=0;bottom=0;right=0;pointerEvents=1;" parent="lV4_ehx4HyBwoeXUqE6B-157" vertex="1" visible="0">
          <mxGeometry x="32" width="60" height="31" as="geometry">
            <mxRectangle width="60" height="31" as="alternateBounds" />
          </mxGeometry>
        </mxCell>
        <mxCell id="lV4_ehx4HyBwoeXUqE6B-159" value="" style="shape=tableRow;horizontal=0;startSize=0;swimlaneHead=0;swimlaneBody=0;strokeColor=inherit;top=0;left=0;bottom=0;right=0;collapsible=0;dropTarget=0;fillColor=none;points=[[0,0.5],[1,0.5]];portConstraint=eastwest;" parent="lV4_ehx4HyBwoeXUqE6B-134" vertex="1">
          <mxGeometry y="377" width="92" height="32" as="geometry" />
        </mxCell>
        <mxCell id="lV4_ehx4HyBwoeXUqE6B-160" value="VSS" style="shape=partialRectangle;html=1;whiteSpace=wrap;connectable=0;strokeColor=inherit;overflow=hidden;fillColor=none;top=0;left=0;bottom=0;right=0;pointerEvents=1;" parent="lV4_ehx4HyBwoeXUqE6B-159" vertex="1">
          <mxGeometry width="32" height="32" as="geometry">
            <mxRectangle width="32" height="32" as="alternateBounds" />
          </mxGeometry>
        </mxCell>
        <mxCell id="lV4_ehx4HyBwoeXUqE6B-177" style="shape=partialRectangle;html=1;whiteSpace=wrap;connectable=0;strokeColor=inherit;overflow=hidden;fillColor=none;top=0;left=0;bottom=0;right=0;pointerEvents=1;" parent="lV4_ehx4HyBwoeXUqE6B-159" vertex="1" visible="0">
          <mxGeometry x="32" width="60" height="32" as="geometry">
            <mxRectangle width="60" height="32" as="alternateBounds" />
          </mxGeometry>
        </mxCell>
        <mxCell id="lV4_ehx4HyBwoeXUqE6B-161" value="" style="shape=tableRow;horizontal=0;startSize=0;swimlaneHead=0;swimlaneBody=0;strokeColor=inherit;top=0;left=0;bottom=0;right=0;collapsible=0;dropTarget=0;fillColor=none;points=[[0,0.5],[1,0.5]];portConstraint=eastwest;" parent="lV4_ehx4HyBwoeXUqE6B-134" vertex="1">
          <mxGeometry y="409" width="92" height="31" as="geometry" />
        </mxCell>
        <mxCell id="lV4_ehx4HyBwoeXUqE6B-162" value="VDD" style="shape=partialRectangle;html=1;whiteSpace=wrap;connectable=0;strokeColor=inherit;overflow=hidden;fillColor=none;top=0;left=0;bottom=0;right=0;pointerEvents=1;" parent="lV4_ehx4HyBwoeXUqE6B-161" vertex="1">
          <mxGeometry width="32" height="31" as="geometry">
            <mxRectangle width="32" height="31" as="alternateBounds" />
          </mxGeometry>
        </mxCell>
        <mxCell id="lV4_ehx4HyBwoeXUqE6B-178" style="shape=partialRectangle;html=1;whiteSpace=wrap;connectable=0;strokeColor=inherit;overflow=hidden;fillColor=none;top=0;left=0;bottom=0;right=0;pointerEvents=1;" parent="lV4_ehx4HyBwoeXUqE6B-161" vertex="1" visible="0">
          <mxGeometry x="32" width="60" height="31" as="geometry">
            <mxRectangle width="60" height="31" as="alternateBounds" />
          </mxGeometry>
        </mxCell>
        <mxCell id="lV4_ehx4HyBwoeXUqE6B-181" style="edgeStyle=none;rounded=0;orthogonalLoop=1;jettySize=auto;html=1;exitX=0;exitY=0.5;exitDx=0;exitDy=0;endArrow=baseDash;endFill=0;" parent="1" source="lV4_ehx4HyBwoeXUqE6B-161" edge="1">
          <mxGeometry relative="1" as="geometry">
            <mxPoint x="710" y="884" as="targetPoint" />
          </mxGeometry>
        </mxCell>
        <mxCell id="lV4_ehx4HyBwoeXUqE6B-183" value="+5V" style="text;html=1;align=center;verticalAlign=middle;resizable=0;points=[];autosize=1;strokeColor=none;fillColor=none;" parent="1" vertex="1">
          <mxGeometry x="496" y="776" width="50" height="30" as="geometry" />
        </mxCell>
        <mxCell id="lV4_ehx4HyBwoeXUqE6B-193" style="edgeStyle=none;rounded=0;orthogonalLoop=1;jettySize=auto;html=1;exitX=0;exitY=0.25;exitDx=0;exitDy=0;exitPerimeter=0;endArrow=baseDash;endFill=0;" parent="1" source="lV4_ehx4HyBwoeXUqE6B-187" edge="1">
          <mxGeometry relative="1" as="geometry">
            <mxPoint x="540" y="792" as="targetPoint" />
          </mxGeometry>
        </mxCell>
        <mxCell id="lV4_ehx4HyBwoeXUqE6B-194" style="edgeStyle=none;rounded=0;orthogonalLoop=1;jettySize=auto;html=1;exitX=1;exitY=0.25;exitDx=0;exitDy=0;exitPerimeter=0;endArrow=block;endFill=0;" parent="1" source="lV4_ehx4HyBwoeXUqE6B-187" edge="1">
          <mxGeometry relative="1" as="geometry">
            <mxPoint x="650" y="810" as="targetPoint" />
            <Array as="points">
              <mxPoint x="650" y="792" />
            </Array>
          </mxGeometry>
        </mxCell>
        <mxCell id="lV4_ehx4HyBwoeXUqE6B-187" value="" style="pointerEvents=1;verticalLabelPosition=bottom;shadow=0;dashed=0;align=center;html=1;verticalAlign=top;shape=mxgraph.electrical.resistors.potentiometer_1;" parent="1" vertex="1">
          <mxGeometry x="546" y="782" width="100" height="40" as="geometry" />
        </mxCell>
        <mxCell id="lV4_ehx4HyBwoeXUqE6B-189" style="edgeStyle=none;rounded=0;orthogonalLoop=1;jettySize=auto;html=1;endArrow=baseDash;endFill=0;startArrow=block;startFill=0;" parent="1" edge="1">
          <mxGeometry relative="1" as="geometry">
            <mxPoint x="708" y="870" as="sourcePoint" />
            <mxPoint x="728" y="854" as="targetPoint" />
            <Array as="points">
              <mxPoint x="708" y="854" />
            </Array>
          </mxGeometry>
        </mxCell>
        <mxCell id="lV4_ehx4HyBwoeXUqE6B-191" style="edgeStyle=none;rounded=0;orthogonalLoop=1;jettySize=auto;html=1;exitX=0;exitY=0.5;exitDx=0;exitDy=0;entryX=0.5;entryY=1;entryDx=0;entryDy=0;entryPerimeter=0;endArrow=none;endFill=0;" parent="1" source="lV4_ehx4HyBwoeXUqE6B-157" target="lV4_ehx4HyBwoeXUqE6B-187" edge="1">
          <mxGeometry relative="1" as="geometry" />
        </mxCell>
        <mxCell id="lV4_ehx4HyBwoeXUqE6B-203" style="edgeStyle=none;rounded=0;orthogonalLoop=1;jettySize=auto;html=1;exitX=0;exitY=0.5;exitDx=0;exitDy=0;jumpStyle=sharp;endArrow=none;endFill=0;entryX=1;entryY=0.5;entryDx=0;entryDy=0;" parent="1" source="lV4_ehx4HyBwoeXUqE6B-155" target="lV4_ehx4HyBwoeXUqE6B-92" edge="1">
          <mxGeometry relative="1" as="geometry">
            <mxPoint x="520" y="720" as="targetPoint" />
            <Array as="points">
              <mxPoint x="670" y="790" />
              <mxPoint x="670" y="720" />
              <mxPoint x="530" y="720" />
            </Array>
          </mxGeometry>
        </mxCell>
        <mxCell id="lV4_ehx4HyBwoeXUqE6B-205" style="edgeStyle=none;rounded=0;orthogonalLoop=1;jettySize=auto;html=1;endArrow=baseDash;endFill=0;startArrow=block;startFill=0;" parent="1" edge="1">
          <mxGeometry relative="1" as="geometry">
            <mxPoint x="708" y="776" as="sourcePoint" />
            <mxPoint x="728" y="760" as="targetPoint" />
            <Array as="points">
              <mxPoint x="708" y="760" />
            </Array>
          </mxGeometry>
        </mxCell>
        <mxCell id="lV4_ehx4HyBwoeXUqE6B-207" style="edgeStyle=none;rounded=0;orthogonalLoop=1;jettySize=auto;html=1;exitX=0;exitY=0.5;exitDx=0;exitDy=0;entryX=1;entryY=0.5;entryDx=0;entryDy=0;endArrow=none;endFill=0;" parent="1" source="lV4_ehx4HyBwoeXUqE6B-151" target="lV4_ehx4HyBwoeXUqE6B-89" edge="1">
          <mxGeometry relative="1" as="geometry">
            <Array as="points">
              <mxPoint x="700" y="727" />
              <mxPoint x="700" y="700" />
              <mxPoint x="700" y="680" />
            </Array>
          </mxGeometry>
        </mxCell>
        <mxCell id="lV4_ehx4HyBwoeXUqE6B-208" style="edgeStyle=none;rounded=0;orthogonalLoop=1;jettySize=auto;html=1;exitX=0;exitY=0.5;exitDx=0;exitDy=0;entryX=1;entryY=0.5;entryDx=0;entryDy=0;endArrow=none;endFill=0;" parent="1" source="lV4_ehx4HyBwoeXUqE6B-141" target="lV4_ehx4HyBwoeXUqE6B-86" edge="1">
          <mxGeometry relative="1" as="geometry">
            <Array as="points">
              <mxPoint x="700" y="570" />
              <mxPoint x="700" y="640" />
            </Array>
          </mxGeometry>
        </mxCell>
        <mxCell id="lV4_ehx4HyBwoeXUqE6B-209" style="edgeStyle=none;rounded=0;orthogonalLoop=1;jettySize=auto;html=1;exitX=0;exitY=0.5;exitDx=0;exitDy=0;entryX=1;entryY=0.5;entryDx=0;entryDy=0;endArrow=none;endFill=0;" parent="1" source="lV4_ehx4HyBwoeXUqE6B-139" target="lV4_ehx4HyBwoeXUqE6B-83" edge="1">
          <mxGeometry relative="1" as="geometry">
            <Array as="points">
              <mxPoint x="670" y="539" />
              <mxPoint x="670" y="600" />
            </Array>
          </mxGeometry>
        </mxCell>
        <mxCell id="lV4_ehx4HyBwoeXUqE6B-210" style="edgeStyle=none;rounded=0;orthogonalLoop=1;jettySize=auto;html=1;exitX=0;exitY=0.5;exitDx=0;exitDy=0;entryX=1;entryY=0.5;entryDx=0;entryDy=0;endArrow=none;endFill=0;" parent="1" source="lV4_ehx4HyBwoeXUqE6B-137" target="lV4_ehx4HyBwoeXUqE6B-80" edge="1">
          <mxGeometry relative="1" as="geometry">
            <Array as="points">
              <mxPoint x="640" y="507" />
              <mxPoint x="640" y="560" />
            </Array>
          </mxGeometry>
        </mxCell>
        <mxCell id="lV4_ehx4HyBwoeXUqE6B-211" style="edgeStyle=none;rounded=0;orthogonalLoop=1;jettySize=auto;html=1;exitX=0;exitY=0.5;exitDx=0;exitDy=0;entryX=1;entryY=0.5;entryDx=0;entryDy=0;endArrow=none;endFill=0;" parent="1" source="lV4_ehx4HyBwoeXUqE6B-135" target="lV4_ehx4HyBwoeXUqE6B-77" edge="1">
          <mxGeometry relative="1" as="geometry">
            <mxPoint x="609.9999999999999" y="475.33333333333337" as="targetPoint" />
            <Array as="points">
              <mxPoint x="610" y="475" />
              <mxPoint x="610" y="520" />
            </Array>
          </mxGeometry>
        </mxCell>
        <mxCell id="j4b_Oq2tb6xR1CLgVXHO-1" value="+5V" style="text;html=1;align=center;verticalAlign=middle;resizable=0;points=[];autosize=1;strokeColor=none;fillColor=none;" vertex="1" parent="1">
          <mxGeometry x="670" y="870" width="50" height="30" as="geometry" />
        </mxCell>
        <mxCell id="j4b_Oq2tb6xR1CLgVXHO-20" value="" style="shape=table;startSize=0;container=1;collapsible=0;childLayout=tableLayout;fontSize=10;" vertex="1" parent="1">
          <mxGeometry x="595" y="362" width="85" height="100" as="geometry" />
        </mxCell>
        <mxCell id="j4b_Oq2tb6xR1CLgVXHO-21" value="" style="shape=tableRow;horizontal=0;startSize=0;swimlaneHead=0;swimlaneBody=0;strokeColor=inherit;top=0;left=0;bottom=0;right=0;collapsible=0;dropTarget=0;fillColor=none;points=[[0,0.5],[1,0.5]];portConstraint=eastwest;fontSize=16;" vertex="1" parent="j4b_Oq2tb6xR1CLgVXHO-20">
          <mxGeometry width="85" height="25" as="geometry" />
        </mxCell>
        <mxCell id="j4b_Oq2tb6xR1CLgVXHO-22" value="GND" style="shape=partialRectangle;html=1;whiteSpace=wrap;connectable=0;strokeColor=inherit;overflow=hidden;fillColor=none;top=0;left=0;bottom=0;right=0;pointerEvents=1;fontSize=12;" vertex="1" parent="j4b_Oq2tb6xR1CLgVXHO-21">
          <mxGeometry width="42" height="25" as="geometry">
            <mxRectangle width="42" height="25" as="alternateBounds" />
          </mxGeometry>
        </mxCell>
        <mxCell id="j4b_Oq2tb6xR1CLgVXHO-23" value="Relay" style="shape=partialRectangle;html=1;whiteSpace=wrap;connectable=0;strokeColor=inherit;overflow=hidden;fillColor=none;top=0;left=0;bottom=0;right=0;pointerEvents=1;fontSize=16;rowspan=4;colspan=1;" vertex="1" parent="j4b_Oq2tb6xR1CLgVXHO-21">
          <mxGeometry x="42" width="43" height="100" as="geometry">
            <mxRectangle width="43" height="25" as="alternateBounds" />
          </mxGeometry>
        </mxCell>
        <mxCell id="j4b_Oq2tb6xR1CLgVXHO-24" value="" style="shape=tableRow;horizontal=0;startSize=0;swimlaneHead=0;swimlaneBody=0;strokeColor=inherit;top=0;left=0;bottom=0;right=0;collapsible=0;dropTarget=0;fillColor=none;points=[[0,0.5],[1,0.5]];portConstraint=eastwest;fontSize=16;" vertex="1" parent="j4b_Oq2tb6xR1CLgVXHO-20">
          <mxGeometry y="25" width="85" height="25" as="geometry" />
        </mxCell>
        <mxCell id="j4b_Oq2tb6xR1CLgVXHO-25" value="IN1" style="shape=partialRectangle;html=1;whiteSpace=wrap;connectable=0;strokeColor=inherit;overflow=hidden;fillColor=none;top=0;left=0;bottom=0;right=0;pointerEvents=1;fontSize=12;" vertex="1" parent="j4b_Oq2tb6xR1CLgVXHO-24">
          <mxGeometry width="42" height="25" as="geometry">
            <mxRectangle width="42" height="25" as="alternateBounds" />
          </mxGeometry>
        </mxCell>
        <mxCell id="j4b_Oq2tb6xR1CLgVXHO-26" value="" style="shape=partialRectangle;html=1;whiteSpace=wrap;connectable=0;strokeColor=inherit;overflow=hidden;fillColor=none;top=0;left=0;bottom=0;right=0;pointerEvents=1;fontSize=16;" vertex="1" visible="0" parent="j4b_Oq2tb6xR1CLgVXHO-24">
          <mxGeometry x="42" width="43" height="25" as="geometry">
            <mxRectangle width="43" height="25" as="alternateBounds" />
          </mxGeometry>
        </mxCell>
        <mxCell id="j4b_Oq2tb6xR1CLgVXHO-27" value="" style="shape=tableRow;horizontal=0;startSize=0;swimlaneHead=0;swimlaneBody=0;strokeColor=inherit;top=0;left=0;bottom=0;right=0;collapsible=0;dropTarget=0;fillColor=none;points=[[0,0.5],[1,0.5]];portConstraint=eastwest;fontSize=16;" vertex="1" parent="j4b_Oq2tb6xR1CLgVXHO-20">
          <mxGeometry y="50" width="85" height="25" as="geometry" />
        </mxCell>
        <mxCell id="j4b_Oq2tb6xR1CLgVXHO-28" value="IN2" style="shape=partialRectangle;html=1;whiteSpace=wrap;connectable=0;strokeColor=inherit;overflow=hidden;fillColor=none;top=0;left=0;bottom=0;right=0;pointerEvents=1;fontSize=12;" vertex="1" parent="j4b_Oq2tb6xR1CLgVXHO-27">
          <mxGeometry width="42" height="25" as="geometry">
            <mxRectangle width="42" height="25" as="alternateBounds" />
          </mxGeometry>
        </mxCell>
        <mxCell id="j4b_Oq2tb6xR1CLgVXHO-29" value="" style="shape=partialRectangle;html=1;whiteSpace=wrap;connectable=0;strokeColor=inherit;overflow=hidden;fillColor=none;top=0;left=0;bottom=0;right=0;pointerEvents=1;fontSize=16;" vertex="1" visible="0" parent="j4b_Oq2tb6xR1CLgVXHO-27">
          <mxGeometry x="42" width="43" height="25" as="geometry">
            <mxRectangle width="43" height="25" as="alternateBounds" />
          </mxGeometry>
        </mxCell>
        <mxCell id="j4b_Oq2tb6xR1CLgVXHO-30" value="" style="shape=tableRow;horizontal=0;startSize=0;swimlaneHead=0;swimlaneBody=0;strokeColor=inherit;top=0;left=0;bottom=0;right=0;collapsible=0;dropTarget=0;fillColor=none;points=[[0,0.5],[1,0.5]];portConstraint=eastwest;fontSize=16;" vertex="1" parent="j4b_Oq2tb6xR1CLgVXHO-20">
          <mxGeometry y="75" width="85" height="25" as="geometry" />
        </mxCell>
        <mxCell id="j4b_Oq2tb6xR1CLgVXHO-31" value="VCC" style="shape=partialRectangle;html=1;whiteSpace=wrap;connectable=0;strokeColor=inherit;overflow=hidden;fillColor=none;top=0;left=0;bottom=0;right=0;pointerEvents=1;fontSize=12;" vertex="1" parent="j4b_Oq2tb6xR1CLgVXHO-30">
          <mxGeometry width="42" height="25" as="geometry">
            <mxRectangle width="42" height="25" as="alternateBounds" />
          </mxGeometry>
        </mxCell>
        <mxCell id="j4b_Oq2tb6xR1CLgVXHO-32" value="" style="shape=partialRectangle;html=1;whiteSpace=wrap;connectable=0;strokeColor=inherit;overflow=hidden;fillColor=none;top=0;left=0;bottom=0;right=0;pointerEvents=1;fontSize=16;" vertex="1" visible="0" parent="j4b_Oq2tb6xR1CLgVXHO-30">
          <mxGeometry x="42" width="43" height="25" as="geometry">
            <mxRectangle width="43" height="25" as="alternateBounds" />
          </mxGeometry>
        </mxCell>
        <mxCell id="j4b_Oq2tb6xR1CLgVXHO-33" style="edgeStyle=none;rounded=0;orthogonalLoop=1;jettySize=auto;html=1;exitX=0;exitY=0.5;exitDx=0;exitDy=0;entryX=1;entryY=0.5;entryDx=0;entryDy=0;fontSize=12;startSize=8;endSize=8;endArrow=none;endFill=0;" edge="1" parent="1" source="j4b_Oq2tb6xR1CLgVXHO-24" target="lV4_ehx4HyBwoeXUqE6B-71">
          <mxGeometry relative="1" as="geometry">
            <Array as="points">
              <mxPoint x="530" y="400" />
              <mxPoint x="530" y="440" />
            </Array>
          </mxGeometry>
        </mxCell>
        <mxCell id="j4b_Oq2tb6xR1CLgVXHO-34" style="edgeStyle=none;rounded=0;orthogonalLoop=1;jettySize=auto;html=1;exitX=0;exitY=0.5;exitDx=0;exitDy=0;entryX=1;entryY=0.5;entryDx=0;entryDy=0;fontSize=12;startSize=8;endSize=8;endArrow=none;endFill=0;" edge="1" parent="1" source="j4b_Oq2tb6xR1CLgVXHO-27" target="lV4_ehx4HyBwoeXUqE6B-74">
          <mxGeometry relative="1" as="geometry">
            <Array as="points">
              <mxPoint x="550" y="425" />
              <mxPoint x="550" y="480" />
            </Array>
          </mxGeometry>
        </mxCell>
        <mxCell id="j4b_Oq2tb6xR1CLgVXHO-35" value="+5V" style="text;html=1;align=center;verticalAlign=middle;resizable=0;points=[];autosize=1;strokeColor=none;fillColor=none;" vertex="1" parent="1">
          <mxGeometry x="555" y="430" width="50" height="30" as="geometry" />
        </mxCell>
        <mxCell id="j4b_Oq2tb6xR1CLgVXHO-37" style="edgeStyle=none;rounded=0;orthogonalLoop=1;jettySize=auto;html=1;endArrow=baseDash;endFill=0;startArrow=block;startFill=0;" edge="1" parent="1">
          <mxGeometry relative="1" as="geometry">
            <mxPoint x="580" y="391" as="sourcePoint" />
            <mxPoint x="595" y="375" as="targetPoint" />
            <Array as="points">
              <mxPoint x="580" y="375" />
            </Array>
          </mxGeometry>
        </mxCell>
        <mxCell id="j4b_Oq2tb6xR1CLgVXHO-57" style="edgeStyle=none;curved=1;rounded=0;orthogonalLoop=1;jettySize=auto;html=1;exitX=1;exitY=0.8;exitDx=0;exitDy=0;entryX=0;entryY=0.5;entryDx=0;entryDy=0;fontSize=12;startSize=8;endSize=8;endArrow=none;endFill=0;" edge="1" parent="1" target="lV4_ehx4HyBwoeXUqE6B-80">
          <mxGeometry relative="1" as="geometry">
            <mxPoint x="235" y="601" as="sourcePoint" />
          </mxGeometry>
        </mxCell>
        <mxCell id="j4b_Oq2tb6xR1CLgVXHO-56" style="edgeStyle=none;rounded=0;orthogonalLoop=1;jettySize=auto;html=1;endArrow=none;endFill=0;startArrow=block;startFill=0;" edge="1" parent="1">
          <mxGeometry relative="1" as="geometry">
            <mxPoint x="150" y="617" as="sourcePoint" />
            <mxPoint x="165" y="601" as="targetPoint" />
            <Array as="points">
              <mxPoint x="150" y="601" />
            </Array>
          </mxGeometry>
        </mxCell>
        <mxCell id="j4b_Oq2tb6xR1CLgVXHO-60" value="" style="html=1;shape=mxgraph.electrical.electro-mechanical.pushbutton;aspect=fixed;elSwitchState=off;fontSize=16;" vertex="1" parent="1">
          <mxGeometry x="160" y="585" width="75" height="20" as="geometry" />
        </mxCell>
        <mxCell id="j4b_Oq2tb6xR1CLgVXHO-61" style="edgeStyle=none;curved=1;rounded=0;orthogonalLoop=1;jettySize=auto;html=1;exitX=1;exitY=0.8;exitDx=0;exitDy=0;entryX=0;entryY=0.5;entryDx=0;entryDy=0;fontSize=12;startSize=8;endSize=8;endArrow=none;endFill=0;" edge="1" parent="1">
          <mxGeometry relative="1" as="geometry">
            <mxPoint x="235" y="641" as="sourcePoint" />
            <mxPoint x="360" y="600" as="targetPoint" />
          </mxGeometry>
        </mxCell>
        <mxCell id="j4b_Oq2tb6xR1CLgVXHO-62" style="edgeStyle=none;rounded=0;orthogonalLoop=1;jettySize=auto;html=1;endArrow=none;endFill=0;startArrow=block;startFill=0;" edge="1" parent="1">
          <mxGeometry relative="1" as="geometry">
            <mxPoint x="150" y="657" as="sourcePoint" />
            <mxPoint x="165" y="641" as="targetPoint" />
            <Array as="points">
              <mxPoint x="150" y="641" />
            </Array>
          </mxGeometry>
        </mxCell>
        <mxCell id="j4b_Oq2tb6xR1CLgVXHO-63" value="" style="html=1;shape=mxgraph.electrical.electro-mechanical.pushbutton;aspect=fixed;elSwitchState=off;fontSize=16;" vertex="1" parent="1">
          <mxGeometry x="160" y="625" width="75" height="20" as="geometry" />
        </mxCell>
        <mxCell id="j4b_Oq2tb6xR1CLgVXHO-66" value="&lt;font style=&quot;font-size: 12px;&quot;&gt;BUTTON_DECREMENT&lt;/font&gt;" style="text;html=1;align=center;verticalAlign=middle;resizable=0;points=[];autosize=1;strokeColor=none;fillColor=none;fontSize=16;" vertex="1" parent="1">
          <mxGeometry x="-10" y="625" width="160" height="30" as="geometry" />
        </mxCell>
        <mxCell id="j4b_Oq2tb6xR1CLgVXHO-67" value="&lt;font style=&quot;font-size: 12px;&quot;&gt;BUTTON_INCREMENT&lt;/font&gt;" style="text;html=1;align=center;verticalAlign=middle;resizable=0;points=[];autosize=1;strokeColor=none;fillColor=none;fontSize=16;" vertex="1" parent="1">
          <mxGeometry x="-5" y="580" width="150" height="30" as="geometry" />
        </mxCell>
        <mxCell id="j4b_Oq2tb6xR1CLgVXHO-68" value="&lt;font style=&quot;font-size: 10px;&quot;&gt;SWITCH_FREQ_MODE&lt;/font&gt;" style="text;html=1;align=center;verticalAlign=middle;resizable=0;points=[];autosize=1;strokeColor=none;fillColor=none;fontSize=16;" vertex="1" parent="1">
          <mxGeometry x="200" y="410" width="130" height="30" as="geometry" />
        </mxCell>
        <mxCell id="j4b_Oq2tb6xR1CLgVXHO-38" value="" style="shape=table;startSize=0;container=1;collapsible=0;childLayout=tableLayout;fontSize=14;" vertex="1" parent="1">
          <mxGeometry x="10" y="420" width="180" height="120" as="geometry" />
        </mxCell>
        <mxCell id="j4b_Oq2tb6xR1CLgVXHO-39" value="" style="shape=tableRow;horizontal=0;startSize=0;swimlaneHead=0;swimlaneBody=0;strokeColor=inherit;top=0;left=0;bottom=0;right=0;collapsible=0;dropTarget=0;fillColor=none;points=[[0,0.5],[1,0.5]];portConstraint=eastwest;fontSize=16;" vertex="1" parent="j4b_Oq2tb6xR1CLgVXHO-38">
          <mxGeometry width="180" height="40" as="geometry" />
        </mxCell>
        <mxCell id="j4b_Oq2tb6xR1CLgVXHO-40" value="" style="shape=partialRectangle;html=1;whiteSpace=wrap;connectable=0;strokeColor=inherit;overflow=hidden;fillColor=none;top=0;left=0;bottom=0;right=0;pointerEvents=1;fontSize=16;" vertex="1" parent="j4b_Oq2tb6xR1CLgVXHO-39">
          <mxGeometry width="60" height="40" as="geometry">
            <mxRectangle width="60" height="40" as="alternateBounds" />
          </mxGeometry>
        </mxCell>
        <mxCell id="j4b_Oq2tb6xR1CLgVXHO-41" value="3-way&lt;br&gt;switch" style="shape=partialRectangle;html=1;whiteSpace=wrap;connectable=0;strokeColor=inherit;overflow=hidden;fillColor=none;top=0;left=0;bottom=0;right=0;pointerEvents=1;fontSize=16;rowspan=3;colspan=1;" vertex="1" parent="j4b_Oq2tb6xR1CLgVXHO-39">
          <mxGeometry x="60" width="60" height="120" as="geometry">
            <mxRectangle width="60" height="40" as="alternateBounds" />
          </mxGeometry>
        </mxCell>
        <mxCell id="j4b_Oq2tb6xR1CLgVXHO-42" value="PIN F" style="shape=partialRectangle;html=1;whiteSpace=wrap;connectable=0;strokeColor=inherit;overflow=hidden;fillColor=none;top=0;left=0;bottom=0;right=0;pointerEvents=1;fontSize=12;" vertex="1" parent="j4b_Oq2tb6xR1CLgVXHO-39">
          <mxGeometry x="120" width="60" height="40" as="geometry">
            <mxRectangle width="60" height="40" as="alternateBounds" />
          </mxGeometry>
        </mxCell>
        <mxCell id="j4b_Oq2tb6xR1CLgVXHO-43" value="" style="shape=tableRow;horizontal=0;startSize=0;swimlaneHead=0;swimlaneBody=0;strokeColor=inherit;top=0;left=0;bottom=0;right=0;collapsible=0;dropTarget=0;fillColor=none;points=[[0,0.5],[1,0.5]];portConstraint=eastwest;fontSize=16;" vertex="1" parent="j4b_Oq2tb6xR1CLgVXHO-38">
          <mxGeometry y="40" width="180" height="40" as="geometry" />
        </mxCell>
        <mxCell id="j4b_Oq2tb6xR1CLgVXHO-44" value="common" style="shape=partialRectangle;html=1;whiteSpace=wrap;connectable=0;strokeColor=inherit;overflow=hidden;fillColor=none;top=0;left=0;bottom=0;right=0;pointerEvents=1;fontSize=12;" vertex="1" parent="j4b_Oq2tb6xR1CLgVXHO-43">
          <mxGeometry width="60" height="40" as="geometry">
            <mxRectangle width="60" height="40" as="alternateBounds" />
          </mxGeometry>
        </mxCell>
        <mxCell id="j4b_Oq2tb6xR1CLgVXHO-45" value="" style="shape=partialRectangle;html=1;whiteSpace=wrap;connectable=0;strokeColor=inherit;overflow=hidden;fillColor=none;top=0;left=0;bottom=0;right=0;pointerEvents=1;fontSize=16;" vertex="1" visible="0" parent="j4b_Oq2tb6xR1CLgVXHO-43">
          <mxGeometry x="60" width="60" height="40" as="geometry">
            <mxRectangle width="60" height="40" as="alternateBounds" />
          </mxGeometry>
        </mxCell>
        <mxCell id="j4b_Oq2tb6xR1CLgVXHO-46" value="unused" style="shape=partialRectangle;html=1;whiteSpace=wrap;connectable=0;strokeColor=inherit;overflow=hidden;fillColor=none;top=0;left=0;bottom=0;right=0;pointerEvents=1;fontSize=12;" vertex="1" parent="j4b_Oq2tb6xR1CLgVXHO-43">
          <mxGeometry x="120" width="60" height="40" as="geometry">
            <mxRectangle width="60" height="40" as="alternateBounds" />
          </mxGeometry>
        </mxCell>
        <mxCell id="j4b_Oq2tb6xR1CLgVXHO-47" value="" style="shape=tableRow;horizontal=0;startSize=0;swimlaneHead=0;swimlaneBody=0;strokeColor=inherit;top=0;left=0;bottom=0;right=0;collapsible=0;dropTarget=0;fillColor=none;points=[[0,0.5],[1,0.5]];portConstraint=eastwest;fontSize=16;" vertex="1" parent="j4b_Oq2tb6xR1CLgVXHO-38">
          <mxGeometry y="80" width="180" height="40" as="geometry" />
        </mxCell>
        <mxCell id="j4b_Oq2tb6xR1CLgVXHO-48" value="" style="shape=partialRectangle;html=1;whiteSpace=wrap;connectable=0;strokeColor=inherit;overflow=hidden;fillColor=none;top=0;left=0;bottom=0;right=0;pointerEvents=1;fontSize=16;" vertex="1" parent="j4b_Oq2tb6xR1CLgVXHO-47">
          <mxGeometry width="60" height="40" as="geometry">
            <mxRectangle width="60" height="40" as="alternateBounds" />
          </mxGeometry>
        </mxCell>
        <mxCell id="j4b_Oq2tb6xR1CLgVXHO-49" value="" style="shape=partialRectangle;html=1;whiteSpace=wrap;connectable=0;strokeColor=inherit;overflow=hidden;fillColor=none;top=0;left=0;bottom=0;right=0;pointerEvents=1;fontSize=16;" vertex="1" visible="0" parent="j4b_Oq2tb6xR1CLgVXHO-47">
          <mxGeometry x="60" width="60" height="40" as="geometry">
            <mxRectangle width="60" height="40" as="alternateBounds" />
          </mxGeometry>
        </mxCell>
        <mxCell id="j4b_Oq2tb6xR1CLgVXHO-50" value="PIN T" style="shape=partialRectangle;html=1;whiteSpace=wrap;connectable=0;strokeColor=inherit;overflow=hidden;fillColor=none;top=0;left=0;bottom=0;right=0;pointerEvents=1;fontSize=12;" vertex="1" parent="j4b_Oq2tb6xR1CLgVXHO-47">
          <mxGeometry x="120" width="60" height="40" as="geometry">
            <mxRectangle width="60" height="40" as="alternateBounds" />
          </mxGeometry>
        </mxCell>
        <mxCell id="j4b_Oq2tb6xR1CLgVXHO-52" style="edgeStyle=none;rounded=0;orthogonalLoop=1;jettySize=auto;html=1;endArrow=baseDash;endFill=0;startArrow=block;startFill=0;" edge="1" parent="1">
          <mxGeometry relative="1" as="geometry">
            <mxPoint x="-10" y="508" as="sourcePoint" />
            <mxPoint x="5" y="492" as="targetPoint" />
            <Array as="points">
              <mxPoint x="-10" y="492" />
            </Array>
          </mxGeometry>
        </mxCell>
        <mxCell id="j4b_Oq2tb6xR1CLgVXHO-71" style="edgeStyle=none;curved=1;rounded=0;orthogonalLoop=1;jettySize=auto;html=1;exitX=1;exitY=0.5;exitDx=0;exitDy=0;entryX=0;entryY=0.5;entryDx=0;entryDy=0;fontSize=12;startSize=8;endSize=8;endArrow=none;endFill=0;" edge="1" parent="1" source="j4b_Oq2tb6xR1CLgVXHO-47" target="lV4_ehx4HyBwoeXUqE6B-77">
          <mxGeometry relative="1" as="geometry" />
        </mxCell>
        <mxCell id="j4b_Oq2tb6xR1CLgVXHO-72" style="edgeStyle=none;rounded=0;orthogonalLoop=1;jettySize=auto;html=1;exitX=1;exitY=0.5;exitDx=0;exitDy=0;fontSize=12;startSize=8;endSize=8;entryX=0;entryY=0.5;entryDx=0;entryDy=0;endArrow=none;endFill=0;" edge="1" parent="1" source="j4b_Oq2tb6xR1CLgVXHO-39" target="lV4_ehx4HyBwoeXUqE6B-74">
          <mxGeometry relative="1" as="geometry">
            <mxPoint x="280" y="440" as="targetPoint" />
            <Array as="points">
              <mxPoint x="260" y="440" />
              <mxPoint x="260" y="480" />
            </Array>
          </mxGeometry>
        </mxCell>
        <mxCell id="j4b_Oq2tb6xR1CLgVXHO-73" value="&lt;font style=&quot;font-size: 10px;&quot;&gt;SWITCH_TEMP_MODE&lt;/font&gt;" style="text;html=1;align=center;verticalAlign=middle;resizable=0;points=[];autosize=1;strokeColor=none;fillColor=none;fontSize=16;" vertex="1" parent="1">
          <mxGeometry x="210" y="490" width="130" height="30" as="geometry" />
        </mxCell>
        <mxCell id="j4b_Oq2tb6xR1CLgVXHO-78" value="&lt;font style=&quot;font-size: 10px;&quot;&gt;WINDOW_&lt;br&gt;OPEN_RELAY&lt;/font&gt;" style="text;html=1;align=center;verticalAlign=middle;resizable=0;points=[];autosize=1;strokeColor=none;fillColor=none;fontSize=16;" vertex="1" parent="1">
          <mxGeometry x="470" y="410" width="90" height="50" as="geometry" />
        </mxCell>
        <mxCell id="j4b_Oq2tb6xR1CLgVXHO-79" value="&lt;font style=&quot;font-size: 10px;&quot;&gt;WINDOW_&lt;br&gt;CLOSE_RELAY&lt;/font&gt;" style="text;html=1;align=center;verticalAlign=middle;resizable=0;points=[];autosize=1;strokeColor=none;fillColor=none;fontSize=16;" vertex="1" parent="1">
          <mxGeometry x="476" y="455" width="100" height="50" as="geometry" />
        </mxCell>
      </root>
    </mxGraphModel>
  </diagram>
</mxfile>
